# File created by Blade
# Date/Time:  Wed Jan 21 17:41:14 2015
# Frame Rate: 120.000 fps
#------------------------------------------------------
:FULLY-SPECIFIED
:DEGREES
1384
root 16.217994 32.560006 -21.663231 -474.531085 86.585592 -558.640518
Spine 64.763914 5.686388 5.638959
Head -25.542253 -13.346903 20.298747
LeftShoulder 7.828784 -51.166493 36.347353
LeftArm 58.975422 -20.536803 -8.864547
LeftForeArm -13.699943 -0.000000 -6.217762
LeftHand 4.632858 -0.000000 56.468139
LeftHandThumb1 -26.253704 0.000000 33.147579
RightShoulder 7.659582 -2.669536 -31.112642
RightArm 33.613257 70.060693 -11.612723
RightForeArm -2.773823 -0.000000 12.261083
RightHand -3.418509 -0.000000 -66.796859
RightHandThumb1 -24.326973 -0.000000 -32.862282
LeftUpLeg -55.468504 -6.132119 3.487234
LeftLeg 6.370523 -0.000000 -0.000000
LeftFoot -24.605568 24.771403 -11.723941
LeftToeBase 2.952284 -0.000000 -0.000000
RightUpLeg -52.878958 -1.445470 4.643759
RightLeg 1.556773 -0.000000 -0.000000
RightFoot -27.970411 -20.757362 20.953424
RightToeBase 9.496811 -0.000000 -0.000000
1385
root 16.295983 32.595022 -21.659686 -476.483871 86.623348 -560.642131
Spine 64.818013 5.670946 5.653466
Head -25.671603 -13.155873 20.203764
LeftShoulder 7.921227 -51.240181 36.388638
LeftArm 58.849206 -20.441185 -8.932082
LeftForeArm -13.741140 -0.000000 -6.112851
LeftHand 4.559955 -0.000000 56.578754
LeftHandThumb1 -26.253704 0.000000 33.147579
RightShoulder 7.538150 -2.700270 -31.200551
RightArm 33.339774 69.750671 -11.736238
RightForeArm -2.512727 -0.000000 12.429177
RightHand -3.408475 0.000000 -67.065207
RightHandThumb1 -24.326973 -0.000000 -32.862282
LeftUpLeg -55.552473 -6.322703 3.548583
LeftLeg 6.539064 -0.000000 -0.000000
LeftFoot -23.855469 25.046068 -11.474297
LeftToeBase 2.356713 -0.000000 -0.000000
RightUpLeg -53.128382 -1.539182 4.599540
RightLeg 2.093308 -0.000000 -0.000000
RightFoot -27.586324 -20.840611 20.989241
RightToeBase 8.924169 -0.000000 -0.000000
1386
root 16.379064 32.636805 -21.661480 -479.057366 86.642568 -563.272911
Spine 64.905195 5.667313 5.784217
Head -25.870496 -13.107547 20.191758
LeftShoulder 8.135927 -51.466021 36.364160
LeftArm 58.709124 -20.299808 -9.040490
LeftForeArm -13.744458 -0.000000 -6.030818
LeftHand 4.526115 -0.000000 56.715520
LeftHandThumb1 -26.253704 0.000000 33.147579
RightShoulder 7.399314 -2.614845 -31.313364
RightArm 32.640470 69.240593 -12.174962
RightForeArm -2.240462 -0.000000 12.672052
RightHand -3.600877 -0.000000 -67.352746
RightHandThumb1 -24.326973 -0.000000 -32.862282
LeftUpLeg -55.660544 -6.477898 3.492769
LeftLeg 6.757609 -0.000000 -0.000000
LeftFoot -22.996863 25.181794 -11.239692
LeftToeBase 1.672165 -0.000000 -0.000000
RightUpLeg -53.410965 -1.697286 4.566522
RightLeg 2.684216 -0.000000 -0.000000
RightFoot -27.118535 -20.911048 20.963749
RightToeBase 8.303969 -0.000000 -0.000000
1387
root 16.463690 32.681586 -21.660907 -480.910867 86.660029 -565.184276
Spine 65.004200 5.604716 5.813138
Head -26.013046 -12.953481 20.071522
LeftShoulder 8.169586 -51.601381 36.438625
LeftArm 58.523486 -20.124095 -9.016213
LeftForeArm -13.899217 -0.000000 -5.990977
LeftHand 4.511970 -0.000000 56.814687
LeftHandThumb1 -26.253704 0.000000 33.147579
RightShoulder 7.266134 -2.608676 -31.423476
RightArm 32.514454 69.017576 -12.206764
RightForeArm -2.142797 -0.000000 12.775941
RightHand -3.955003 -0.000000 -67.427392
RightHandThumb1 -24.326973 -0.000000 -32.862282
LeftUpLeg -55.738488 -6.699132 3.601608
LeftLeg 6.881201 -0.000000 -0.000000
LeftFoot -22.105041 25.534798 -10.895676
LeftToeBase 1.085095 -0.000000 -0.000000
RightUpLeg -53.697993 -1.830621 4.583235
RightLeg 3.276176 -0.000000 -0.000000
RightFoot -26.567978 -21.031547 20.834344
RightToeBase 7.751940 -0.000000 -0.000000
1388
root 16.542304 32.739181 -21.652618 -481.228688 86.747586 -565.692691
Spine 64.979048 5.803276 5.916925
Head -26.183577 -12.903533 20.127111
LeftShoulder 8.472389 -51.833214 36.369885
LeftArm 58.378616 -19.992757 -9.027200
LeftForeArm -13.881896 -0.000000 -6.011175
LeftHand 4.520341 -0.000000 56.923165
LeftHandThumb1 -26.253704 0.000000 33.147579
RightShoulder 7.155423 -2.714783 -31.499767
RightArm 31.636855 68.740500 -12.846502
RightForeArm -1.895330 0.000000 12.958176
RightHand -4.062228 -0.000000 -67.632678
RightHandThumb1 -24.326973 -0.000000 -32.862282
LeftUpLeg -55.968653 -6.771310 3.682977
LeftLeg 7.026794 -0.000000 -0.000000
LeftFoot -21.140928 25.892908 -10.519452
LeftToeBase 0.478852 -0.000000 -0.000000
RightUpLeg -54.157168 -1.745680 4.482671
RightLeg 3.908536 -0.000000 -0.000000
RightFoot -25.933716 -21.293949 20.720281
RightToeBase 7.215129 -0.000000 -0.000000
1389
root 16.628687 32.799531 -21.654550 -482.582811 86.756204 -567.197563
Spine 65.019257 5.776575 6.010763
Head -26.333493 -12.788539 20.036388
LeftShoulder 8.578439 -51.979148 36.390474
LeftArm 58.211013 -19.879213 -9.019132
LeftForeArm -13.903735 -0.000000 -6.039748
LeftHand 4.378475 -0.000000 56.949089
LeftHandThumb1 -26.253704 0.000000 33.147579
RightShoulder 7.089713 -2.645263 -31.639516
RightArm 31.194349 68.477290 -13.102154
RightForeArm -1.825012 0.000000 13.077405
RightHand -4.131945 -0.000000 -67.807648
RightHandThumb1 -24.326973 -0.000000 -32.862282
LeftUpLeg -56.180855 -6.955330 3.795671
LeftLeg 7.191134 -0.000000 -0.000000
LeftFoot -20.122378 26.256038 -10.102391
LeftToeBase -0.031340 -0.000000 0.000000
RightUpLeg -54.563342 -1.802561 4.452255
RightLeg 4.519395 -0.000000 -0.000000
RightFoot -25.238670 -21.589682 20.319048
RightToeBase 7.004982 -0.000000 -0.000000
